<svg version="1.1" id="Layer_1" xmlns="http://www.w3.org/2000/svg" xmlns:xlink="http://www.w3.org/1999/xlink" x="0px" y="0px"
	 width="100%" viewBox="0 0 146 146" enable-background="new 0 0 146 146" xml:space="preserve">
<path fill="#000000" opacity="1.000000" stroke="none"
	d="
M1.000000,67.000000
	C1.000000,45.035046 1.000000,23.070089 1.000000,1.052567
	C49.554050,1.052567 98.108170,1.052567 147.000000,1.052567
	C147.000000,21.686337 147.000000,42.374508 146.627731,63.644070
	C144.852448,61.114849 143.449432,58.004242 141.894867,54.581184
	C141.434875,53.183289 141.126434,52.097851 140.858871,50.642139
	C136.962753,38.768394 130.109695,29.351860 120.967621,21.363523
	C114.369080,15.597723 107.771194,10.048925 98.839119,7.588538
	C97.760910,7.258786 96.869598,7.213030 95.781113,7.100347
	C95.583923,7.033419 95.168045,7.011267 94.943993,6.704247
	C78.575867,0.575885 62.712898,2.266423 46.666695,8.253590
	C34.864952,13.758285 24.461475,20.751017 16.814615,30.957190
	C13.491035,35.393135 11.669895,40.954773 9.007048,46.314655
	C7.624500,48.736237 6.401275,50.848301 4.991196,53.322788
	C4.533559,55.079727 4.376716,56.508575 3.968903,57.861797
	C3.044954,60.927658 1.997331,63.956253 1.000000,67.000000
z"/>
<path fill="#51A532" opacity="1.000000" stroke="none"
	d="
M80.000000,147.000000
	C78.611107,147.000000 77.222221,147.000000 75.260780,146.715271
	C73.792152,146.620346 72.896072,146.810165 72.000000,147.000000
	C70.933479,147.000000 69.866966,147.000000 68.289818,146.698303
	C66.498123,144.938446 65.742661,141.902878 62.627472,144.725098
	C58.815735,143.712738 55.384586,142.782074 51.786789,141.564407
	C44.711414,137.866364 37.802689,134.455322 30.595209,130.894669
	C20.922012,124.453239 15.879151,114.453232 9.304113,105.795654
	C10.029845,105.079002 10.528955,104.525589 11.329442,104.119560
	C17.970007,115.708023 28.486805,120.865669 40.550777,124.215065
	C63.927711,130.705353 87.199005,130.145752 110.293655,123.457535
	C119.476433,120.798203 128.848373,117.681686 133.696365,107.997322
	C134.178940,107.033340 135.815994,106.647301 137.182541,106.061356
	C137.943268,106.356758 138.438660,106.583832 138.638092,107.003922
	C131.763260,118.920860 122.477898,127.997643 110.727905,135.050629
	C103.218277,137.533554 96.109138,140.056198 88.956978,142.450317
	C86.027451,143.430939 83.004951,144.133820 80.013397,145.302475
	C80.001373,146.094604 80.000687,146.547302 80.000000,147.000000
z"/>
<path fill="#000000" opacity="1.000000" stroke="none"
	d="
M9.077491,105.958900
	C15.879151,114.453232 20.922012,124.453239 30.768688,131.189697
	C35.765659,134.455124 40.182014,137.476608 44.864567,140.005127
	C46.951366,141.131973 49.574001,141.266510 51.953438,141.851410
	C55.384586,142.782074 58.815735,143.712738 62.842812,144.877380
	C63.292500,145.740906 63.146248,146.370453 63.000000,147.000000
	C42.406513,147.000000 21.813025,147.000000 1.000000,147.000000
	C1.000000,126.646301 1.000000,106.291809 1.352691,85.347923
	C2.093626,85.874062 2.487661,86.987617 2.868838,88.105560
	C3.541951,90.079697 4.207228,92.056511 4.944139,94.275604
	C5.066071,94.678703 5.119649,94.838402 5.117278,95.390854
	C6.400049,99.175385 7.738770,102.567139 9.077491,105.958900
z"/>
<path fill="#000000" opacity="1.000000" stroke="none"
	d="
M111.111069,135.038605
	C122.477898,127.997643 131.763260,118.920860 138.945389,106.926483
	C141.376877,100.762978 143.159119,94.854805 145.087784,88.994820
	C145.347519,88.205582 146.344437,87.658966 147.000000,87.000000
	C147.000000,106.927414 147.000000,126.854828 147.000000,147.000000
	C126.979630,147.000000 106.958473,147.000000 86.401093,146.731369
	C85.598366,145.996811 85.331856,145.530899 85.481743,145.032104
	C88.129417,144.646683 90.554077,144.735886 92.556122,143.859589
	C98.826759,141.114944 104.938049,138.006256 111.111069,135.038605
z"/>
<path fill="#4BA128" opacity="1.000000" stroke="none"
	d="
M147.000000,86.625000
	C146.344437,87.658966 145.347519,88.205582 145.087784,88.994820
	C143.159119,94.854805 141.376877,100.762978 139.241364,106.733459
	C138.438660,106.583832 137.943268,106.356758 137.220154,105.697144
	C137.311905,103.839996 137.631332,102.415390 138.149963,100.716553
	C138.860870,98.939713 139.372589,97.437096 140.027618,95.601425
	C140.438431,93.845924 140.705933,92.423462 141.135529,90.765701
	C141.475357,89.992233 141.653122,89.454079 141.846741,88.551422
	C141.902451,87.458328 141.942307,86.729736 142.140717,85.764427
	C142.470154,84.989143 142.641022,84.450584 142.818634,83.515244
	C142.803162,82.061081 142.780945,81.003693 142.802856,79.488876
	C142.275543,74.007957 141.704086,68.984459 141.112946,63.521133
	C140.987015,60.720757 140.880798,58.360222 140.998154,55.828995
	C141.496628,55.403416 141.771515,55.148529 142.046417,54.893639
	C143.449432,58.004242 144.852448,61.114849 146.627731,64.112732
	C147.000000,64.750000 147.000000,65.500000 146.703247,66.656647
	C144.292328,70.525787 144.601166,77.777596 147.000000,81.000000
	C147.000000,81.000000 147.000000,81.500000 146.751373,81.783569
	C146.668488,82.711426 146.834244,83.355713 147.000000,84.000000
	C147.000000,84.750000 147.000000,85.500000 147.000000,86.625000
z"/>
<path fill="#3D9D19" opacity="1.000000" stroke="none"
	d="
M4.875784,94.032204
	C4.207228,92.056511 3.541951,90.079697 2.868838,88.105560
	C2.487661,86.987617 2.093626,85.874062 1.352691,84.879265
	C1.000000,84.555557 1.000000,84.111107 1.269236,83.550217
	C1.755840,82.969559 1.973207,82.505341 2.190575,82.041138
	C1.793717,82.027428 1.396858,82.013718 1.000000,82.000000
	C1.000000,77.310745 1.000000,72.621490 1.000000,67.466118
	C1.997331,63.956253 3.044954,60.927658 3.968903,57.861797
	C4.376716,56.508575 4.533559,55.079727 5.247799,53.427780
	C6.366799,53.787598 7.042340,54.404850 7.715868,55.391640
	C7.397325,57.465153 7.080796,59.169128 6.513323,61.062695
	C5.917758,62.217419 5.573135,63.182552 5.212328,64.533554
	C5.151594,65.948288 5.107047,66.977165 4.869894,68.361435
	C4.782837,72.477432 4.888384,76.238029 5.003958,80.407837
	C5.671400,85.204674 6.328817,89.592300 6.634952,93.984291
	C5.814374,94.003166 5.345079,94.017685 4.875784,94.032204
z"/>
<path fill="#70A359" opacity="1.000000" stroke="none"
	d="
M147.000000,80.666672
	C144.601166,77.777596 144.292328,70.525787 146.703247,67.031647
	C147.000000,68.388893 147.000000,69.777779 146.910660,71.739532
	C146.781998,72.551163 146.753082,72.791183 146.588226,73.404007
	C146.316620,74.830528 146.191360,75.885506 146.133698,77.216034
	C146.467529,77.994400 146.733765,78.497200 147.000000,79.000000
	C147.000000,79.444443 147.000000,79.888893 147.000000,80.666672
z"/>
<path fill="#50A133" opacity="1.000000" stroke="none"
	d="
M63.416664,147.000000
	C63.146248,146.370453 63.292500,145.740906 63.223404,144.959076
	C65.742661,141.902878 66.498123,144.938446 67.889595,146.698303
	C66.611115,147.000000 65.222221,147.000000 63.416664,147.000000
z"/>
<path fill="#5CAF59" opacity="1.000000" stroke="none"
	d="
M85.065353,145.064972
	C85.331856,145.530899 85.598366,145.996811 85.932434,146.731369
	C85.555504,147.000000 85.111000,147.000000 84.208107,146.999496
	C83.499809,146.998657 83.249901,146.998993 83.000000,147.000000
	C83.000000,147.000000 82.500000,147.000000 82.320999,146.681366
	C82.120193,145.928223 82.098396,145.493729 82.449860,145.039154
	C83.570541,145.034378 84.317947,145.049683 85.065353,145.064972
z"/>
<path fill="#808080" opacity="1.000000" stroke="none"
	d="
M146.066086,76.940483
	C146.191360,75.885506 146.316620,74.830528 146.656586,73.415565
	C146.871277,73.055580 147.000000,73.000000 147.000000,73.000000
	C147.000000,74.066673 147.000000,75.133339 146.766296,76.588623
	C146.532608,76.977242 146.066086,76.940483 146.066086,76.940483
z"/>
<path fill="#50A133" opacity="1.000000" stroke="none"
	d="
M82.076591,145.059235
	C82.098396,145.493729 82.120193,145.928223 82.070999,146.681366
	C81.555557,147.000000 81.111115,147.000000 80.333336,147.000000
	C80.000687,146.547302 80.001373,146.094604 80.354935,145.314850
	C81.164078,145.011612 81.620338,145.035416 82.076591,145.059235
z"/>
<path fill="#70A359" opacity="1.000000" stroke="none"
	d="
M147.000000,83.666672
	C146.834244,83.355713 146.668488,82.711426 146.751373,82.033569
	C147.000000,82.444443 147.000000,82.888893 147.000000,83.666672
z"/>
<path fill="#FFFF00" opacity="1.000000" stroke="none"
	d="
M72.375000,147.000000
	C72.896072,146.810165 73.792152,146.620346 74.844116,146.715271
	C74.250000,147.000000 73.500000,147.000000 72.375000,147.000000
z"/>
<path fill="#000000" opacity="1.000000" stroke="none"
	d="
M1.000000,82.250000
	C1.396858,82.013718 1.793717,82.027428 2.190575,82.041138
	C1.973207,82.505341 1.755840,82.969559 1.269236,83.216888
	C1.000000,83.000000 1.000000,82.500000 1.000000,82.250000
z"/>
<path fill="#4BA128" opacity="1.000000" stroke="none"
	d="
M146.133698,77.216034
	C146.066086,76.940483 146.532608,76.977242 146.766296,76.988617
	C147.000000,77.444443 147.000000,77.888893 147.000000,78.666672
	C146.733765,78.497200 146.467529,77.994400 146.133698,77.216034
z"/>
<path fill="#4BA128" opacity="1.000000" stroke="none"
	d="
M147.000000,72.750000
	C147.000000,73.000000 146.871277,73.055580 146.802917,73.044022
	C146.753082,72.791183 146.781998,72.551163 146.910660,72.156197
	C147.000000,72.000000 147.000000,72.500000 147.000000,72.750000
z"/>
<path fill="#3C9C19" opacity="1.000000" stroke="none"
	d="
M83.250000,147.000000
	C83.249901,146.998993 83.499809,146.998657 83.874855,146.999496
	C84.000000,147.000000 83.500000,147.000000 83.250000,147.000000
z"/>
<path fill="#4CA32D" opacity="1.000000" stroke="none"
	d="
M99.026024,7.872535
	C107.771194,10.048925 114.369080,15.597723 120.967621,21.363523
	C130.109695,29.351860 136.962753,38.768394 140.523041,50.638748
	C139.474792,50.995178 138.803223,50.984726 138.015366,50.628143
	C135.243729,45.840847 132.588394,41.399681 129.902161,36.610867
	C127.775841,33.424915 125.680412,30.586618 123.396820,27.458414
	C120.371788,24.727104 117.534935,22.285700 114.444267,19.581621
	C109.963074,16.768379 105.657127,14.335194 101.558517,11.592216
	C100.402374,10.818478 99.853447,9.137439 99.026024,7.872535
z"/>
<path fill="#4BA32C" opacity="1.000000" stroke="none"
	d="
M9.166368,46.005142
	C11.669895,40.954773 13.491035,35.393135 16.814615,30.957190
	C24.461475,20.751017 34.864952,13.758285 46.874916,8.450056
	C47.955494,9.118606 48.486473,9.661582 48.771622,10.425962
	C45.925919,12.057066 43.326046,13.466766 40.405968,14.977008
	C36.549164,17.676439 33.012562,20.275330 29.177959,22.984390
	C26.162378,26.027920 23.444799,28.961277 20.478294,32.099854
	C18.757328,34.526165 17.285288,36.747257 15.579008,39.161041
	C14.592669,40.559940 13.840568,41.766155 12.937793,43.240097
	C12.207790,44.344093 11.628461,45.180363 10.735341,46.014290
	C10.003156,46.009674 9.584763,46.007408 9.166368,46.005142
z"/>
<path fill="#3E9C1B" opacity="1.000000" stroke="none"
	d="
M49.017456,10.204559
	C48.486473,9.661582 47.955494,9.118606 47.216290,8.379162
	C62.712898,2.266423 78.575867,0.575885 94.672806,7.021736
	C92.359398,7.558202 90.047096,7.730094 87.834618,7.338310
	C76.679634,5.362997 65.648483,5.010961 54.567200,9.393909
	C54.316929,10.031024 54.355949,10.478168 54.439461,10.920481
	C54.483948,10.915652 54.482300,10.826170 54.593185,10.434780
	C52.808537,10.097113 50.912994,10.150836 49.017456,10.204559
z"/>
<path fill="#A1CE90" opacity="1.000000" stroke="none"
	d="
M54.856499,9.203938
	C65.648483,5.010961 76.679634,5.362997 87.834618,7.338310
	C90.047096,7.730094 92.359398,7.558202 94.896851,7.328756
	C95.168045,7.011267 95.583923,7.033419 95.873779,7.438995
	C96.781540,9.373414 97.399445,10.902256 97.603394,12.321095
	C94.121986,11.770117 91.054527,11.329142 87.649780,10.710789
	C78.200233,10.406793 69.087982,10.280173 59.648819,10.232878
	C58.223606,10.518371 57.125313,10.724539 55.755676,10.484583
	C55.275055,9.760285 55.065777,9.482112 54.856499,9.203938
z"/>
<path fill="#8DC479" opacity="1.000000" stroke="none"
	d="
M98.017334,12.431099
	C97.399445,10.902256 96.781540,9.373414 96.070969,7.505923
	C96.869598,7.213030 97.760910,7.258786 98.839119,7.588539
	C99.853447,9.137439 100.402374,10.818478 101.558517,11.592216
	C105.657127,14.335194 109.963074,16.768379 113.986557,19.616737
	C113.179924,19.958990 112.577194,20.003452 111.634583,19.949095
	C107.860733,18.227768 104.426765,16.605263 100.735901,14.833509
	C99.658447,13.933208 98.837891,13.182154 98.017334,12.431099
z"/>
<path fill="#50A530" opacity="1.000000" stroke="none"
	d="
M9.007048,46.314659
	C9.584763,46.007408 10.003156,46.009674 10.715408,46.387085
	C10.967896,47.508244 10.926524,48.254261 10.698477,49.288406
	C9.968699,51.363911 9.425598,53.151283 8.591177,54.957207
	C8.105865,54.991203 7.911873,55.006653 7.717881,55.022099
	C7.042340,54.404850 6.366799,53.787598 5.434654,53.065357
	C6.401275,50.848301 7.624500,48.736237 9.007048,46.314659
z"/>
<path fill="#51A532" opacity="1.000000" stroke="none"
	d="
M138.131668,50.974277
	C138.803223,50.984726 139.474792,50.995178 140.482178,51.009018
	C141.126434,52.097851 141.434875,53.183289 141.894867,54.581184
	C141.771515,55.148529 141.496628,55.403416 140.786316,55.622581
	C139.598404,54.385895 138.845932,53.184933 138.096680,51.731300
	C138.110489,51.310520 138.121078,51.142399 138.131668,50.974277
z"/>
<path fill="#56A838" opacity="1.000000" stroke="none"
	d="
M137.950775,100.990768
	C137.631332,102.415390 137.311905,103.839996 136.954834,105.628815
	C135.815994,106.647301 134.178940,107.033340 133.696365,107.997322
	C128.848373,117.681686 119.476433,120.798203 110.293655,123.457535
	C87.199005,130.145752 63.927711,130.705353 40.550777,124.215065
	C28.486805,120.865669 17.970007,115.708023 11.190323,103.782959
	C10.503662,101.863472 10.257498,100.427986 10.381774,99.034981
	C12.613056,99.774246 14.579222,100.273148 16.318241,101.198792
	C31.583738,109.324287 47.387745,115.326607 64.963676,116.426323
	C82.024971,117.493843 98.495537,115.537369 114.347183,109.254532
	C122.045059,106.203453 129.462311,102.444366 137.087952,99.270493
	C137.429810,100.020386 137.690292,100.505577 137.950775,100.990768
z"/>
<path fill="#3C9C19" opacity="1.000000" stroke="none"
	d="
M82.449860,145.039154
	C81.620338,145.035416 81.164078,145.011612 80.366287,144.975418
	C83.004951,144.133820 86.027451,143.430939 88.956978,142.450317
	C96.109138,140.056198 103.218277,137.533554 110.727905,135.050629
	C104.938049,138.006256 98.826759,141.114944 92.556122,143.859589
	C90.554077,144.735886 88.129417,144.646683 85.481743,145.032104
	C84.317947,145.049683 83.570541,145.034378 82.449860,145.039154
z"/>
<path fill="#3B9B14" opacity="1.000000" stroke="none"
	d="
M51.786789,141.564407
	C49.574001,141.266510 46.951366,141.131973 44.864567,140.005127
	C40.182014,137.476608 35.765659,134.455124 31.067440,131.339325
	C37.802689,134.455322 44.711414,137.866364 51.786789,141.564407
z"/>
<path fill="#50A530" opacity="1.000000" stroke="none"
	d="
M10.011333,98.992493
	C10.257498,100.427986 10.503662,101.863472 10.888946,103.635574
	C10.528955,104.525589 10.029845,105.079002 9.304113,105.795654
	C7.738770,102.567139 6.400049,99.175385 5.429744,95.389969
	C6.216288,94.989250 6.634416,94.982193 7.277498,95.196701
	C8.338746,96.609673 9.175040,97.801086 10.011333,98.992493
z"/>
<path fill="#51A532" opacity="1.000000" stroke="none"
	d="
M7.052544,94.975128
	C6.634416,94.982193 6.216288,94.989250 5.485694,94.997200
	C5.119649,94.838402 5.066071,94.678703 4.944139,94.275604
	C5.345079,94.017685 5.814374,94.003166 6.651728,94.233185
	C7.019785,94.477722 7.052544,94.975128 7.052544,94.975128
z"/>
<path fill="#5AAA3E" opacity="1.000000" stroke="none"
	d="
M7.277498,95.196701
	C7.052544,94.975128 7.019785,94.477722 7.003010,94.228828
	C6.328817,89.592300 5.671400,85.204674 5.258337,80.409393
	C5.672243,80.001556 5.841794,80.001366 6.389549,80.017700
	C8.723797,80.841827 11.037374,81.225266 12.578947,82.524628
	C24.202818,92.322151 38.191605,97.475929 52.474632,102.998222
	C60.265469,103.240814 67.588181,103.482811 75.253349,103.943359
	C77.375259,104.390640 79.187523,104.962296 80.929138,104.795647
	C100.883636,102.886276 118.866425,95.887077 134.938248,83.858292
	C137.234665,82.139557 140.136871,81.230240 142.758713,79.946312
	C142.780945,81.003693 142.803162,82.061081 142.630981,83.628235
	C142.285095,84.759048 142.133621,85.380096 141.982147,86.001152
	C141.942307,86.729736 141.902451,87.458328 141.656982,88.663086
	C141.292053,89.759842 141.132751,90.380424 140.973450,91.001007
	C140.705933,92.423462 140.438431,93.845924 139.768463,95.753532
	C138.579529,97.161057 137.793060,98.083427 137.006607,99.005798
	C129.462311,102.444366 122.045059,106.203453 114.347183,109.254532
	C98.495537,115.537369 82.024971,117.493843 64.963676,116.426323
	C47.387745,115.326607 31.583738,109.324287 16.318241,101.198792
	C14.579222,100.273148 12.613056,99.774246 10.381775,99.034981
	C9.175040,97.801086 8.338746,96.609673 7.277498,95.196701
z"/>
<path fill="#5FAD43" opacity="1.000000" stroke="none"
	d="
M142.802856,79.488876
	C140.136871,81.230240 137.234665,82.139557 134.938248,83.858292
	C118.866425,95.887077 100.883636,102.886276 80.929138,104.795647
	C79.187523,104.962296 77.375259,104.390640 75.430725,103.610291
	C84.731232,101.233170 90.744476,94.994110 95.697289,87.506165
	C96.990616,88.140762 98.383308,89.066772 99.225868,88.706444
	C111.890976,83.290009 124.630005,78.013466 134.297638,67.518555
	C135.934418,65.741707 138.822617,65.117638 141.132645,63.960968
	C141.704086,68.984459 142.275543,74.007957 142.802856,79.488876
z"/>
<path fill="#64AF49" opacity="1.000000" stroke="none"
	d="
M141.112946,63.521133
	C138.822617,65.117638 135.934418,65.741707 134.297638,67.518555
	C124.630005,78.013466 111.890976,83.290009 99.225868,88.706444
	C98.383308,89.066772 96.990616,88.140762 95.805061,87.166214
	C96.542542,81.347900 97.328766,76.176422 98.378479,71.158981
	C100.084991,72.526146 100.749359,75.450081 103.645157,73.279663
	C111.948395,67.056366 120.766022,61.419945 128.450729,54.516750
	C131.813461,51.495995 134.120834,50.080273 138.093460,51.983963
	C138.845932,53.184933 139.598404,54.385895 140.562714,55.793274
	C140.880798,58.360222 140.987015,60.720757 141.112946,63.521133
z"/>
<path fill="#51A532" opacity="1.000000" stroke="none"
	d="
M137.087952,99.270500
	C137.793060,98.083427 138.579529,97.161057 139.625153,96.086578
	C139.372589,97.437096 138.860870,98.939713 138.149963,100.716553
	C137.690292,100.505577 137.429810,100.020386 137.087952,99.270500
z"/>
<path fill="#51A532" opacity="1.000000" stroke="none"
	d="
M142.140717,85.764427
	C142.133621,85.380096 142.285095,84.759048 142.624222,84.025009
	C142.641022,84.450584 142.470154,84.989143 142.140717,85.764427
z"/>
<path fill="#51A532" opacity="1.000000" stroke="none"
	d="
M141.135529,90.765701
	C141.132751,90.380424 141.292053,89.759842 141.641113,89.027588
	C141.653122,89.454079 141.475357,89.992233 141.135529,90.765701
z"/>
<path fill="#5FAD44" opacity="1.000000" stroke="none"
	d="
M52.006504,102.997627
	C38.191605,97.475929 24.202818,92.322151 12.578947,82.524628
	C11.037374,81.225266 8.723797,80.841827 6.384330,79.562325
	C5.688105,75.395638 5.375302,71.700836 5.062499,68.006035
	C5.107047,66.977165 5.151594,65.948288 5.498422,64.492470
	C6.186854,64.021835 6.573008,63.978149 7.211793,64.159752
	C13.633862,69.357315 19.480230,74.816566 26.054749,79.178253
	C34.219048,84.594612 42.985680,89.103065 51.585594,94.445732
	C51.788193,97.591080 51.897346,100.294350 52.006504,102.997627
z"/>
<path fill="#63AF48" opacity="1.000000" stroke="none"
	d="
M51.492149,94.003662
	C42.985680,89.103065 34.219048,84.594612 26.054749,79.178253
	C19.480230,74.816566 13.633862,69.357315 7.205402,63.778072
	C6.885675,62.405102 6.824971,61.639103 6.764267,60.873100
	C7.080796,59.169128 7.397325,57.465153 7.715868,55.391640
	C7.911873,55.006653 8.105865,54.991203 8.935501,55.100746
	C11.470461,56.170963 13.746502,56.724098 15.206358,58.126728
	C23.130323,65.740051 31.303205,72.808235 41.693314,77.107613
	C44.687366,78.346542 46.754608,81.806587 49.276695,84.216995
	C49.961189,84.871178 50.754864,85.411140 51.590183,86.440506
	C51.618675,89.252876 51.555412,91.628273 51.492149,94.003662
z"/>
<path fill="#50A530" opacity="1.000000" stroke="none"
	d="
M4.869894,68.361435
	C5.375302,71.700836 5.688105,75.395638 6.006127,79.545807
	C5.841794,80.001366 5.672243,80.001556 5.248311,80.000191
	C4.888384,76.238029 4.782837,72.477432 4.869894,68.361435
z"/>
<path fill="#50A530" opacity="1.000000" stroke="none"
	d="
M6.513323,61.062695
	C6.824971,61.639103 6.885675,62.405102 6.952771,63.552784
	C6.573008,63.978149 6.186854,64.021835 5.514607,64.106598
	C5.573135,63.182552 5.917758,62.217419 6.513323,61.062695
z"/>
<path fill="#6AB250" opacity="1.000000" stroke="none"
	d="
M138.096680,51.731300
	C134.120834,50.080273 131.813461,51.495995 128.450729,54.516750
	C120.766022,61.419945 111.948395,67.056366 103.645157,73.279663
	C100.749359,75.450081 100.084991,72.526146 98.274384,70.839035
	C97.888969,69.918640 97.871147,69.472221 97.861649,68.861496
	C97.816246,68.361130 97.661873,68.074493 97.253235,67.556534
	C96.307327,65.213188 95.515045,63.150581 95.100815,61.029633
	C108.223061,55.143475 119.394394,47.595661 125.275429,34.152412
	C127.007004,35.210037 128.470016,36.084278 129.933044,36.958519
	C132.588394,41.399681 135.243729,45.840847 138.015366,50.628143
	C138.121078,51.142399 138.110489,51.310520 138.096680,51.731300
z"/>
<path fill="#81BE6B" opacity="1.000000" stroke="none"
	d="
M111.974472,20.047916
	C112.577194,20.003452 113.179924,19.958990 114.240356,19.879412
	C117.534935,22.285700 120.371788,24.727104 123.113419,27.649820
	C122.679352,28.422930 122.340530,28.714727 121.728729,28.818819
	C118.973396,26.739902 116.491028,24.848694 113.847534,22.708626
	C113.115753,21.655815 112.545113,20.851866 111.974472,20.047916
z"/>
<path fill="#78B960" opacity="1.000000" stroke="none"
	d="
M122.001701,29.006527
	C122.340530,28.714727 122.679352,28.422930 123.301582,27.939726
	C125.680412,30.586618 127.775841,33.424915 129.902161,36.610870
	C128.470016,36.084278 127.007004,35.210037 125.182037,33.842354
	C123.880630,31.901449 122.941170,30.453987 122.001701,29.006527
z"/>
<path fill="#6AB250" opacity="1.000000" stroke="none"
	d="
M10.885153,49.000275
	C10.926524,48.254261 10.967896,47.508244 11.029200,46.389435
	C11.628461,45.180363 12.207790,44.344093 13.279739,43.202888
	C15.181864,41.598839 16.591372,40.299725 18.260063,38.798050
	C19.686579,36.753448 20.853910,34.911404 22.265060,33.050365
	C22.508879,33.031372 22.995895,32.986118 23.301634,33.125507
	C24.333258,33.926193 25.311956,34.452854 25.746704,35.269192
	C31.317585,45.729828 41.287045,51.673603 49.958630,59.435978
	C49.965450,64.263092 49.952599,68.622849 49.638206,72.844879
	C47.717979,71.555901 46.235340,70.100868 44.457623,69.304733
	C35.640865,65.356186 28.190897,59.599159 21.925064,52.346165
	C18.833908,48.768017 15.628863,46.623276 10.885153,49.000275
z"/>
<path fill="#93C780" opacity="1.000000" stroke="none"
	d="
M48.771622,10.425962
	C50.912994,10.150836 52.808537,10.097113 54.260998,10.592936
	C51.515415,12.327671 49.212910,13.512860 46.598106,14.827664
	C44.871124,15.594952 43.456440,16.232624 41.920738,16.595192
	C41.441872,15.838881 41.084026,15.357673 40.726177,14.876467
	C43.326046,13.466766 45.925919,12.057066 48.771622,10.425962
z"/>
<path fill="#7BBB64" opacity="1.000000" stroke="none"
	d="
M22.995895,32.986118
	C22.995895,32.986118 22.508879,33.031372 22.062923,32.840202
	C21.320385,32.397564 21.023802,32.146099 20.727219,31.894636
	C23.444799,28.961277 26.162378,26.027920 29.448717,23.152348
	C30.343842,23.476707 30.670208,23.743280 30.812956,24.284634
	C28.084858,27.368317 25.540379,30.177217 22.995895,32.986118
z"/>
<path fill="#89C275" opacity="1.000000" stroke="none"
	d="
M30.996572,24.009853
	C30.670208,23.743280 30.343842,23.476707 29.746717,23.042179
	C33.012562,20.275330 36.549164,17.676439 40.405968,14.977007
	C41.084026,15.357673 41.441872,15.838881 41.666420,16.757530
	C41.018707,17.501663 40.504295,17.808355 39.702831,18.274422
	C36.609379,20.292479 33.802975,22.151167 30.996572,24.009853
z"/>
<path fill="#74B75B" opacity="1.000000" stroke="none"
	d="
M20.478294,32.099854
	C21.023802,32.146099 21.320385,32.397564 21.819103,32.859192
	C20.853910,34.911404 19.686579,36.753448 17.896271,38.793709
	C16.786610,38.984066 16.299929,38.976212 15.813246,38.968353
	C17.285288,36.747257 18.757328,34.526165 20.478294,32.099854
z"/>
<path fill="#71B558" opacity="1.000000" stroke="none"
	d="
M15.579009,39.161041
	C16.299929,38.976212 16.786610,38.984066 17.637085,38.996265
	C16.591372,40.299725 15.181864,41.598839 13.430412,42.935165
	C13.840568,41.766155 14.592669,40.559940 15.579009,39.161041
z"/>
<path fill="#7BBB63" opacity="1.000000" stroke="none"
	d="
M46.910404,14.698050
	C49.212910,13.512860 51.515415,12.327671 54.150108,10.984325
	C54.482300,10.826170 54.483948,10.915652 54.847759,10.932316
	C55.483387,10.942889 55.755199,10.936798 56.027016,10.930706
	C57.125313,10.724539 58.223606,10.518371 59.656174,10.626272
	C60.444252,17.292656 66.343559,22.234035 73.714890,22.436213
	C80.958694,22.634892 87.262146,17.534575 87.987068,10.888166
	C91.054527,11.329142 94.121986,11.770117 97.603394,12.321096
	C98.837891,13.182154 99.658447,13.933208 100.721840,15.221894
	C100.035271,18.204559 99.619530,21.046434 98.089218,23.027224
	C90.723061,32.561787 79.661453,38.163181 66.062897,34.481941
	C56.190685,31.809454 47.521141,22.993902 46.910404,14.698050
z"/>
<path fill="#93C780" opacity="1.000000" stroke="none"
	d="
M55.755676,10.484583
	C55.755199,10.936798 55.483387,10.942889 54.803272,10.937145
	C54.355949,10.478168 54.316929,10.031024 54.567200,9.393909
	C55.065777,9.482112 55.275055,9.760285 55.755676,10.484583
z"/>
<path fill="#7FBD69" opacity="1.000000" stroke="none"
	d="
M87.649780,10.710789
	C87.262146,17.534575 80.958694,22.634892 73.714890,22.436213
	C66.343559,22.234035 60.444252,17.292656 59.983089,10.546947
	C69.087982,10.280173 78.200233,10.406793 87.649780,10.710789
z"/>
<path fill="#75B85D" opacity="1.000000" stroke="none"
	d="
M46.598106,14.827664
	C47.521141,22.993902 56.190685,31.809454 66.062897,34.481941
	C79.661453,38.163181 90.723061,32.561787 98.089218,23.027224
	C99.619530,21.046434 100.035271,18.204559 100.978745,15.371141
	C104.426765,16.605263 107.860733,18.227768 111.634583,19.949095
	C112.545113,20.851866 113.115753,21.655815 113.805939,23.082682
	C111.680359,31.418089 106.433586,36.845707 100.156181,41.363514
	C95.349503,44.822853 90.317719,47.969410 85.062912,51.160141
	C81.159325,49.677162 77.578888,48.289127 73.879517,46.589920
	C73.193268,45.710911 72.722588,44.841354 72.043106,44.623718
	C67.263474,43.092812 62.058735,42.415325 57.712002,40.105896
	C48.845154,35.394924 40.395725,29.857832 39.989883,18.115047
	C40.504295,17.808355 41.018707,17.501663 41.787437,17.032635
	C43.456440,16.232624 44.871124,15.594952 46.598106,14.827664
z"/>
<path fill="#67B04B" opacity="1.000000" stroke="none"
	d="
M10.698477,49.288406
	C15.628863,46.623276 18.833908,48.768017 21.925064,52.346165
	C28.190897,59.599159 35.640865,65.356186 44.457623,69.304733
	C46.235340,70.100868 47.717979,71.555901 49.652382,73.220047
	C50.447620,75.475067 50.927135,77.217194 51.534283,79.384857
	C51.607418,81.874771 51.552921,83.939156 51.498428,86.003532
	C50.754864,85.411140 49.961189,84.871178 49.276695,84.216995
	C46.754608,81.806587 44.687366,78.346542 41.693314,77.107613
	C31.303205,72.808235 23.130323,65.740051 15.206358,58.126728
	C13.746502,56.724098 11.470461,56.170963 9.226820,55.082191
	C9.425598,53.151283 9.968699,51.363911 10.698477,49.288406
z"/>
<path fill="#FCFEFC" opacity="1.000000" stroke="none"
	d="
M51.590179,86.440506
	C51.552921,83.939156 51.607418,81.874771 51.634327,78.928383
	C51.694260,67.690269 51.781780,57.334164 52.345940,46.989979
	C59.881203,46.968300 66.939819,46.934696 73.998444,46.901096
	C77.578888,48.289127 81.159325,49.677162 85.288010,51.427170
	C88.798431,54.888752 91.760597,57.988361 94.722763,61.087975
	C95.515045,63.150581 96.307327,65.213188 97.305870,67.876602
	C97.625854,68.660202 97.739594,68.843002 97.853325,69.025810
	C97.871147,69.472221 97.888969,69.918640 98.010895,70.684998
	C97.328766,76.176422 96.542542,81.347900 95.648544,86.859322
	C90.744476,94.994110 84.731232,101.233170 75.088272,103.391731
	C67.588181,103.482811 60.265469,103.240814 52.474632,102.998222
	C51.897346,100.294350 51.788193,97.591080 51.585594,94.445732
	C51.555412,91.628273 51.618675,89.252876 51.590179,86.440506
M65.986252,91.000938
	C72.251350,91.199280 78.910446,92.178986 82.893127,85.702431
	C84.702568,82.759972 85.597168,79.254951 87.057365,75.339172
	C87.001167,74.890816 86.944962,74.442459 86.971390,73.388680
	C86.689812,72.904694 86.408234,72.420715 86.081291,71.286980
	C86.046669,70.856857 86.012054,70.426735 86.058350,69.495857
	C85.991013,69.340752 85.923676,69.185654 85.757942,68.351288
	C83.104477,62.634727 78.643372,59.145485 72.459038,58.190998
	C67.861397,57.481407 64.211365,58.858387 62.939468,64.956764
	C62.907524,73.006149 62.850819,81.055573 62.860527,89.104904
	C62.863049,91.194763 62.958416,91.194649 65.986252,91.000938
z"/>
<path fill="#6FB556" opacity="1.000000" stroke="none"
	d="
M95.100815,61.029633
	C91.760597,57.988361 88.798431,54.888752 85.611160,51.522118
	C90.317719,47.969410 95.349503,44.822853 100.156181,41.363514
	C106.433586,36.845707 111.680359,31.418089 113.967072,23.331543
	C116.491028,24.848694 118.973396,26.739902 121.728729,28.818817
	C122.941170,30.453987 123.880630,31.901449 124.913483,33.658974
	C119.394394,47.595661 108.223061,55.143475 95.100815,61.029633
z"/>
<path fill="#64AF49" opacity="1.000000" stroke="none"
	d="
M97.861649,68.861496
	C97.739594,68.843002 97.625854,68.660202 97.459488,68.157333
	C97.661873,68.074493 97.816246,68.361130 97.861649,68.861496
z"/>
<path fill="#74B75B" opacity="1.000000" stroke="none"
	d="
M73.879517,46.589920
	C66.939819,46.934696 59.881203,46.968300 52.094604,47.266548
	C50.890739,51.343674 50.414848,55.156147 49.938957,58.968620
	C41.287045,51.673603 31.317585,45.729828 25.746704,35.269192
	C25.311956,34.452854 24.333258,33.926193 23.301636,33.125507
	C25.540379,30.177217 28.084858,27.368317 30.812956,24.284634
	C33.802975,22.151167 36.609379,20.292479 39.702831,18.274420
	C40.395725,29.857832 48.845154,35.394924 57.712002,40.105896
	C62.058735,42.415325 67.263474,43.092812 72.043106,44.623718
	C72.722588,44.841354 73.193268,45.710911 73.879517,46.589920
z"/>
<path fill="#58A93B" opacity="1.000000" stroke="none"
	d="
M49.958630,59.435978
	C50.414848,55.156147 50.890739,51.343674 51.617966,47.254631
	C51.781780,57.334164 51.694260,67.690269 51.506695,78.502846
	C50.927135,77.217194 50.447620,75.475067 49.953926,73.357773
	C49.952599,68.622849 49.965450,64.263092 49.958630,59.435978
z"/>
<path fill="#6BB351" opacity="1.000000" stroke="none"
	d="
M85.977440,69.996613
	C86.012054,70.426735 86.046669,70.856857 86.000069,71.807556
	C86.242149,72.883461 86.565460,73.438782 86.888763,73.994102
	C86.944962,74.442459 87.001167,74.890816 86.580811,75.764664
	C83.305275,76.459793 80.496231,76.652489 77.709587,77.016525
	C73.162300,77.610580 68.629631,78.316391 64.071274,78.513275
	C63.746906,73.382133 63.442047,68.712761 63.137184,64.043388
	C64.211365,58.858387 67.861397,57.481407 72.459038,58.190998
	C78.643372,59.145485 83.104477,62.634727 85.779312,68.814461
	C85.776306,69.534981 85.835228,69.774643 85.977440,69.996613
z"/>
<path fill="#65B04A" opacity="1.000000" stroke="none"
	d="
M64.090790,78.975052
	C68.629631,78.316391 73.162300,77.610580 77.709587,77.016525
	C80.496231,76.652489 83.305275,76.459793 86.505508,76.097633
	C85.597168,79.254951 84.702568,82.759972 82.893127,85.702431
	C78.910446,92.178986 72.251350,91.199280 65.322861,90.660583
	C64.469910,86.538498 64.280350,82.756775 64.090790,78.975052
z"/>
<path fill="#4DA42E" opacity="1.000000" stroke="none"
	d="
M64.071274,78.513275
	C64.280350,82.756775 64.469910,86.538498 64.867683,90.674149
	C62.958416,91.194649 62.863049,91.194763 62.860527,89.104904
	C62.850819,81.055573 62.907524,73.006149 63.038326,64.500076
	C63.442047,68.712761 63.746906,73.382133 64.071274,78.513275
z"/>
<path fill="#65B04A" opacity="1.000000" stroke="none"
	d="
M86.930077,73.691391
	C86.565460,73.438782 86.242149,72.883461 86.022751,72.132439
	C86.408234,72.420715 86.689812,72.904694 86.930077,73.691391
z"/>
<path fill="#65B04A" opacity="1.000000" stroke="none"
	d="
M86.017899,69.746231
	C85.835228,69.774643 85.776306,69.534981 85.828514,69.154099
	C85.923676,69.185654 85.991013,69.340752 86.017899,69.746231
z"/>
</svg>